<svg
  width='34'
  height='34'
  viewBox="0 0 34 34"
  fill="none"
  xmlns="http://www.w3.org/2000/svg"
>
  <path
    fillRule="evenodd"
    clipRule="evenodd"
    d="M9.66601 31.1654C7.45687 31.1654 5.66602 29.3745 5.66602 27.1654L5.66602 6.83204C5.66602 4.6229 7.45688 2.83203 9.66602 2.83203L24.3327 2.83203C26.5418 2.83203 28.3327 4.62289 28.3327 6.83203V27.1654C28.3327 29.3745 26.5418 31.1654 24.3327 31.1654H9.66601ZM10.2702 8.4987C10.2702 7.9119 10.7459 7.4362 11.3327 7.4362L22.666 7.4362C23.2528 7.4362 23.7285 7.9119 23.7285 8.4987C23.7285 9.0855 23.2528 9.5612 22.666 9.5612H11.3327C10.7459 9.5612 10.2702 9.0855 10.2702 8.4987ZM12.3952 14.1654C12.3952 14.7522 11.9195 15.2279 11.3327 15.2279C10.7459 15.2279 10.2702 14.7522 10.2702 14.1654C10.2702 13.5786 10.7459 13.1029 11.3327 13.1029C11.9195 13.1029 12.3952 13.5786 12.3952 14.1654ZM18.0618 14.1654C18.0618 14.7522 17.5862 15.2279 16.9993 15.2279C16.4125 15.2279 15.9368 14.7522 15.9368 14.1654C15.9368 13.5786 16.4125 13.1029 16.9993 13.1029C17.5862 13.1029 18.0618 13.5786 18.0618 14.1654ZM22.666 15.2279C23.2528 15.2279 23.7285 14.7522 23.7285 14.1654C23.7285 13.5786 23.2528 13.1029 22.666 13.1029C22.0792 13.1029 21.6035 13.5786 21.6035 14.1654C21.6035 14.7522 22.0792 15.2279 22.666 15.2279ZM11.3327 20.8945C11.9195 20.8945 12.3952 20.4188 12.3952 19.832C12.3952 19.2452 11.9195 18.7695 11.3327 18.7695C10.7459 18.7695 10.2702 19.2452 10.2702 19.832C10.2702 20.4188 10.7459 20.8945 11.3327 20.8945ZM16.9993 20.8945C17.5862 20.8945 18.0618 20.4188 18.0618 19.832C18.0618 19.2452 17.5862 18.7695 16.9993 18.7695C16.4125 18.7695 15.9368 19.2452 15.9368 19.832C15.9368 20.4188 16.4125 20.8945 16.9993 20.8945ZM23.7285 19.832C23.7285 20.4188 23.2528 20.8945 22.666 20.8945C22.0792 20.8945 21.6035 20.4188 21.6035 19.832C21.6035 19.2452 22.0792 18.7695 22.666 18.7695C23.2528 18.7695 23.7285 19.2452 23.7285 19.832ZM12.3952 25.4987C12.3952 26.0855 11.9195 26.5612 11.3327 26.5612C10.7459 26.5612 10.2702 26.0855 10.2702 25.4987C10.2702 24.9119 10.7459 24.4362 11.3327 24.4362C11.9195 24.4362 12.3952 24.9119 12.3952 25.4987ZM18.0618 25.4987C18.0618 26.0855 17.5862 26.5612 16.9993 26.5612C16.4125 26.5612 15.9368 26.0855 15.9368 25.4987C15.9368 24.9119 16.4125 24.4362 16.9993 24.4362C17.5862 24.4362 18.0618 24.9119 18.0618 25.4987ZM22.666 26.5612C23.2528 26.5612 23.7285 26.0855 23.7285 25.4987C23.7285 24.9119 23.2528 24.4362 22.666 24.4362C22.0792 24.4362 21.6035 24.9119 21.6035 25.4987C21.6035 26.0855 22.0792 26.5612 22.666 26.5612Z"
    fill="#32A840"
  />
</svg>