<svg
  width='34'
  height='34'
  viewBox="0 0 34 34"
  fill="none"
  xmlns="http://www.w3.org/2000/svg"
>
  <path
    fillRule="evenodd"
    clipRule="evenodd"
    d="M17.0007 4.25C18.5655 4.25 19.834 5.51853 19.834 7.08333L19.834 26.9167C19.834 28.4815 18.5655 29.75 17.0007 29.75C15.4358 29.75 14.1673 28.4815 14.1673 26.9167L14.1673 7.08333C14.1673 5.51853 15.4358 4.25 17.0007 4.25ZM5.66732 17C7.23212 17 8.50065 18.2685 8.50065 19.8333L8.50065 26.9167C8.50065 28.4815 7.23212 29.75 5.66732 29.75C4.10251 29.75 2.83398 28.4815 2.83398 26.9167L2.83398 19.8333C2.83398 18.2685 4.10251 17 5.66732 17ZM31.1673 14.1667C31.1673 12.6019 29.8988 11.3333 28.334 11.3333C26.7692 11.3333 25.5007 12.6019 25.5007 14.1667L25.5007 26.9167C25.5007 28.4815 26.7692 29.75 28.334 29.75C29.8988 29.75 31.1673 28.4815 31.1673 26.9167V14.1667Z"
    fill="#800080"
  />
</svg>