<svg
  width='34'
  height='34'
  viewBox="0 0 34 34"
  fill="none"
  xmlns="http://www.w3.org/2000/svg"
>
  <path
    fillRule="evenodd"
    clipRule="evenodd"
    d="M22.5007 2.83203L5.83398 2.83203C4.17713 2.83203 2.83398 4.17518 2.83398 5.83203L2.83398 28.1654C2.83398 29.8222 4.17713 31.1654 5.83398 31.1654H28.334C26.7692 31.1654 25.5007 29.8968 25.5007 28.332V11.332V5.83203C25.5007 4.17518 24.1575 2.83203 22.5007 2.83203ZM7.43815 9.91537C7.43815 9.32856 7.91385 8.85287 8.50065 8.85287H19.834C20.4208 8.85287 20.8965 9.32856 20.8965 9.91537C20.8965 10.5022 20.4208 10.9779 19.834 10.9779L8.50065 10.9779C7.91385 10.9779 7.43815 10.5022 7.43815 9.91537ZM8.50065 15.9362C7.91385 15.9362 7.43815 16.4119 7.43815 16.9987C7.43815 17.5855 7.91385 18.0612 8.50065 18.0612H19.834C20.4208 18.0612 20.8965 17.5855 20.8965 16.9987C20.8965 16.4119 20.4208 15.9362 19.834 15.9362L8.50065 15.9362ZM7.43815 24.082C7.43815 23.4952 7.91385 23.0195 8.50065 23.0195H14.1673C14.7541 23.0195 15.2298 23.4952 15.2298 24.082C15.2298 24.6688 14.7541 25.1445 14.1673 25.1445H8.50065C7.91385 25.1445 7.43815 24.6688 7.43815 24.082ZM31.1673 27.5404V14.1654C31.1673 12.6006 29.8988 11.332 28.334 11.332H27.6257V27.5404C27.6257 28.3688 28.2972 29.0404 29.1257 29.0404H29.6673C30.4957 29.0404 31.1673 28.3688 31.1673 27.5404Z"
    fill="#2F65CC"
  />
</svg>