<svg
  width='34'
  height='34'
  viewBox="0 0 34 34"
  fill="none"
  xmlns="http://www.w3.org/2000/svg"
>
  <path
    fillRule="evenodd"
    clipRule="evenodd"
    d="M14.1667 15.5833C17.2963 15.5833 19.8333 13.0463 19.8333 9.91667C19.8333 6.78705 17.2963 4.25 14.1667 4.25C11.0371 4.25 8.5 6.78705 8.5 9.91667C8.5 13.0463 11.0371 15.5833 14.1667 15.5833ZM14.1667 29.75C19.6435 29.75 24.0833 27.2129 24.0833 24.0833C24.0833 20.9537 19.6435 18.4167 14.1667 18.4167C8.68984 18.4167 4.25 20.9537 4.25 24.0833C4.25 27.2129 8.68984 29.75 14.1667 29.75ZM19.7787 15.3219C21.1284 13.9209 21.9583 12.0158 21.9583 9.91678C21.9583 8.9186 21.7706 7.96427 21.4286 7.08714C23.6929 7.18079 25.4999 9.0461 25.4999 11.3334C25.4999 13.6807 23.5971 15.5834 21.2499 15.5834C20.7327 15.5834 20.2371 15.4911 19.7787 15.3219ZM26.2082 24.0832C26.2082 24.8466 26.0386 25.5842 25.7224 26.2814C28.1398 25.532 29.7499 24.1933 29.7499 22.6666C29.7499 20.5328 26.6049 18.7663 22.5062 18.4627C24.788 19.8805 26.2082 21.8746 26.2082 24.0832Z"
    fill="#FAAD14"
  />
</svg>