<svg width="20" height="20" viewBox="0 0 20 20" fill="none" xmlns="http://www.w3.org/2000/svg">
  <path fillRule="evenodd" clipRule="evenodd" d="M5.83333 1.66602C3.99238 1.66602 2.5 3.1584 2.5 4.99935V14.9993C2.5 16.8403 3.99238 18.3327 5.83333 18.3327H14.1667C16.0076 18.3327 17.5 16.8403 17.5 14.9993V6.38006C17.5 5.49601 17.1488 4.64816 16.5237 4.02304L15.143 2.64233C14.5179 2.01721 13.67 1.66602 12.786 1.66602H5.83333ZM6.66667 5.20768C6.32149 5.20768 6.04167 5.4875 6.04167 5.83268C6.04167 6.17786 6.32149 6.45768 6.66667 6.45768H13.3333C13.6785 6.45768 13.9583 6.17786 13.9583 5.83268C13.9583 5.4875 13.6785 5.20768 13.3333 5.20768H6.66667ZM6.04167 9.99935C6.04167 9.65417 6.32149 9.37435 6.66667 9.37435H13.3333C13.6785 9.37435 13.9583 9.65417 13.9583 9.99935C13.9583 10.3445 13.6785 10.6243 13.3333 10.6243H6.66667C6.32149 10.6243 6.04167 10.3445 6.04167 9.99935ZM6.66667 13.541C6.32149 13.541 6.04167 13.8208 6.04167 14.166C6.04167 14.5112 6.32149 14.791 6.66667 14.791H10C10.3452 14.791 10.625 14.5112 10.625 14.166C10.625 13.8208 10.3452 13.541 10 13.541H6.66667Z" fill="#767D8B" />
</svg>