<svg
  width="20"
  height="20"
  viewBox="0 0 20 20"
  fill="none"
  xmlns="http://www.w3.org/2000/svg"
>
  <path
    d="M6.03464 1.66602H4.4513C2.6263 1.66602 1.66797 2.62435 1.66797 4.44102V6.02435C1.66797 7.84102 2.6263 8.79935 4.44297 8.79935H6.0263C7.84297 8.79935 8.8013 7.84102 8.8013 6.02435V4.44102C8.80964 2.62435 7.8513 1.66602 6.03464 1.66602Z"
    fill="#767D8B"
  />
  <path
    d="M15.5576 1.66602H13.9742C12.1576 1.66602 11.1992 2.62435 11.1992 4.44102V6.02435C11.1992 7.84102 12.1576 8.79935 13.9742 8.79935H15.5576C17.3742 8.79935 18.3326 7.84102 18.3326 6.02435V4.44102C18.3326 2.62435 17.3742 1.66602 15.5576 1.66602Z"
    fill="#767D8B"
  />
  <path
    d="M15.5576 11.1914H13.9742C12.1576 11.1914 11.1992 12.1497 11.1992 13.9664V15.5497C11.1992 17.3664 12.1576 18.3247 13.9742 18.3247H15.5576C17.3742 18.3247 18.3326 17.3664 18.3326 15.5497V13.9664C18.3326 12.1497 17.3742 11.1914 15.5576 11.1914Z"
    fill="#767D8B"
  />
  <path
    d="M6.03464 11.1914H4.4513C2.6263 11.1914 1.66797 12.1497 1.66797 13.9664V15.5497C1.66797 17.3747 2.6263 18.3331 4.44297 18.3331H6.0263C7.84297 18.3331 8.8013 17.3747 8.8013 15.5581V13.9747C8.80964 12.1497 7.8513 11.1914 6.03464 11.1914Z"
    fill="#767D8B"
  />
</svg>