<svg
  width="46"
  height="46"
  viewBox="0 0 46 46"
  fill="none"
  xmlns="http://www.w3.org/2000/svg"
>
  <rect width="46" height="46" rx="10" fill="#FEF5F5" />
  <path
    fillRule="evenodd"
    clipRule="evenodd"
    d="M26.7128 27.7734C27.0057 28.0663 27.4805 28.0663 27.7734 27.7734C28.0663 27.4805 28.0663 27.0057 27.7734 26.7128L24.0611 23.0005L27.7734 19.2882C28.0663 18.9953 28.0663 18.5204 27.7734 18.2275C27.4805 17.9346 27.0057 17.9346 26.7128 18.2275L23.0005 21.9398L19.2882 18.2275C18.9953 17.9346 18.5204 17.9346 18.2275 18.2275C17.9346 18.5204 17.9346 18.9952 18.2275 19.2881L21.9398 23.0005L18.2275 26.7128C17.9346 27.0057 17.9346 27.4806 18.2275 27.7735C18.5204 28.0664 18.9952 28.0664 19.2881 27.7735L23.0005 24.0611L26.7128 27.7734Z"
    fill="#FE4D4F"
  />
</svg>