<svg
  width="32"
  height="32"
  viewBox="0 0 32 32"
  fill="none"
  xmlns="http://www.w3.org/2000/svg"
>
  <rect width="32" height="32" rx="8" fill="#FC9C0F" />
  <g clipPath="url(#clip0_1561_61473)">
    <path
      d="M17.7693 8.5H20.1237C20.6298 8.5 21.1118 8.71917 21.4481 9.10223L23.8832 11.8762C24.4483 12.52 24.4819 13.4796 23.9633 14.1623L17.4019 22.7997C16.6926 23.7334 15.3022 23.7334 14.5929 22.7997L8.03152 14.1623C7.5129 13.4796 7.54653 12.52 8.11164 11.8762L10.5467 9.10223C10.883 8.71917 11.3649 8.5 11.8711 8.5H14.4223M17.7693 8.5L19.5413 12.9857M17.7693 8.5H14.4223M19.5413 12.9857H23.9711M19.5413 12.9857L15.9974 23.3028L12.4535 12.9857M19.5413 12.9857H12.4535M14.4223 8.5L12.4535 12.9857M8.0237 12.9857H12.4535"
      stroke="white"
      strokeWidth="1.5"
      strokeLinecap="round"
      strokeLinejoin="round"
    />
  </g>
  <defs>
    <clipPath id="clip0_1561_61473">
      <rect width="20" height="20" fill="white" transform="translate(6 6)" />
    </clipPath>
  </defs>
</svg>