<svg
  width="24"
  height="23"
  viewBox="0 0 20 21"
  fill="none"
  xmlns="http://www.w3.org/2000/svg"
>
  <g clipPath="url(#clip0_266_40068)">
    <path
      fillRule="evenodd"
      clipRule="evenodd"
      d="M6.22342 10.1093C5.97934 9.86518 5.97935 9.46945 6.22342 9.22537C6.4675 8.9813 6.86323 8.9813 7.10731 9.22538L9.37367 11.4918V1.33398C9.37367 0.988806 9.65349 0.708984 9.99867 0.708984C10.3438 0.708984 10.6237 0.988806 10.6237 1.33398L10.6237 11.4918L12.8901 9.22537C13.1342 8.9813 13.5299 8.9813 13.774 9.22538C14.0181 9.46946 14.018 9.86518 13.774 10.1093L10.4406 13.4426C10.3234 13.5598 10.1644 13.6257 9.99866 13.6257C9.8329 13.6257 9.67393 13.5598 9.55672 13.4426L6.22342 10.1093ZM5.28187 7.55826C5.49777 7.28893 5.45446 6.89558 5.18514 6.67968C4.91581 6.46379 4.52246 6.5071 4.30656 6.77642C3.30596 8.02463 2.70703 9.61023 2.70703 11.334C2.70703 15.3611 5.97162 18.6257 9.9987 18.6257C14.0258 18.6257 17.2904 15.3611 17.2904 11.334C17.2904 9.61023 16.6914 8.02463 15.6908 6.77642C15.4749 6.5071 15.0816 6.46379 14.8123 6.67968C14.5429 6.89558 14.4996 7.28893 14.7155 7.55826C15.5448 8.59271 16.0404 9.90462 16.0404 11.334C16.0404 14.6707 13.3354 17.3757 9.9987 17.3757C6.66198 17.3757 3.95703 14.6707 3.95703 11.334C3.95703 9.90462 4.45263 8.59271 5.28187 7.55826Z"
      fill="#28303F"
    />
  </g>
  <defs>
    <clipPath id="clip0_266_40068">
      <rect
        width="24"
        height="24"
        fill="white"
        transform="translate(0 0.5)"
      />
    </clipPath>
  </defs>
</svg>