<svg width="24" height="25" viewBox="0 0 24 25" fill="none" xmlns="http://www.w3.org/2000/svg">
<path d="M17 11.424C17 11.078 17 10.905 17.052 10.751C17.203 10.303 17.602 10.13 18.002 9.94799C18.45 9.74299 18.674 9.64099 18.897 9.62299C19.149 9.60299 19.402 9.65699 19.618 9.77799C19.904 9.93799 20.104 10.244 20.308 10.492C21.251 11.638 21.723 12.211 21.895 12.842C22.035 13.352 22.035 13.886 21.895 14.395C21.644 15.317 20.849 16.089 20.26 16.805C19.959 17.17 19.808 17.353 19.618 17.46C19.3983 17.5818 19.1474 17.6358 18.897 17.615C18.674 17.597 18.45 17.495 18.001 17.29C17.601 17.108 17.203 16.935 17.052 16.487C17 16.333 17 16.16 17 15.814V11.424ZM7.00003 11.424C7.00003 10.988 6.98803 10.597 6.63603 10.291C6.50803 10.18 6.33803 10.103 5.99903 9.94799C5.55003 9.74399 5.32603 9.64099 5.10303 9.62299C4.43603 9.56899 4.07703 10.025 3.69303 10.493C2.74903 11.638 2.27703 12.211 2.10403 12.843C1.96483 13.3513 1.96483 13.8877 2.10403 14.396C2.35603 15.317 3.15203 16.09 3.74003 16.805C4.11103 17.255 4.46603 17.666 5.10303 17.615C5.32603 17.597 5.55003 17.495 5.99903 17.29C6.33903 17.136 6.50803 17.058 6.63603 16.947C6.98803 16.641 7.00003 16.25 7.00003 15.815V11.424Z" stroke="#767D8B" stroke-width="1.5"/>
<path d="M5.00006 9.61899C5.00006 6.30499 8.13406 3.61899 12.0001 3.61899C15.8661 3.61899 19.0001 6.30499 19.0001 9.61899" stroke="#767D8B" stroke-width="1.5" stroke-linecap="square" stroke-linejoin="round"/>
<path d="M19 17.619V18.419C19 20.186 17.21 21.619 15 21.619H13" stroke="#767D8B" stroke-width="1.5" stroke-linecap="round" stroke-linejoin="round"/>
</svg>
