<svg width="68" height="55" viewBox="0 0 68 55" fill="none" xmlns="http://www.w3.org/2000/svg">
<rect width="68" height="55" rx="10" fill="#F5FBFF"/>
<path d="M33.9957 22.1644C31.0578 22.1644 28.6602 24.562 28.6602 27.5C28.6602 30.438 31.0578 32.8356 33.9957 32.8356C36.9336 32.8356 39.3312 30.438 39.3312 27.5C39.3312 24.562 36.9336 22.1644 33.9957 22.1644ZM49.9982 27.5C49.9982 25.2905 50.0182 23.101 49.8941 20.8955C49.7701 18.3338 49.1857 16.0603 47.3125 14.187C45.4352 12.3097 43.1657 11.7293 40.604 11.6053C38.3946 11.4812 36.2052 11.5012 33.9997 11.5012C31.7902 11.5012 29.6008 11.4812 27.3954 11.6053C24.8337 11.7293 22.5602 12.3137 20.687 14.187C18.8097 16.0643 18.2293 18.3338 18.1053 20.8955C17.9812 23.105 18.0012 25.2945 18.0012 27.5C18.0012 29.7055 17.9812 31.899 18.1053 34.1045C18.2293 36.6662 18.8137 38.9397 20.687 40.813C22.5642 42.6903 24.8337 43.2707 27.3954 43.3947C29.6048 43.5188 31.7943 43.4988 33.9997 43.4988C36.2092 43.4988 38.3986 43.5188 40.604 43.3947C43.1657 43.2707 45.4392 42.6863 47.3125 40.813C49.1897 38.9357 49.7701 36.6662 49.8941 34.1045C50.0222 31.899 49.9982 29.7095 49.9982 27.5ZM33.9957 35.7095C29.4527 35.7095 25.7863 32.0431 25.7863 27.5C25.7863 22.9569 29.4527 19.2905 33.9957 19.2905C38.5387 19.2905 42.2051 22.9569 42.2051 27.5C42.2051 32.0431 38.5387 35.7095 33.9957 35.7095ZM42.5413 20.8715C41.4806 20.8715 40.6241 20.0149 40.6241 18.9542C40.6241 17.8935 41.4806 17.0369 42.5413 17.0369C43.602 17.0369 44.4586 17.8935 44.4586 18.9542C44.4589 19.2061 44.4095 19.4556 44.3133 19.6883C44.217 19.9211 44.0758 20.1326 43.8977 20.3107C43.7196 20.4888 43.5082 20.63 43.2754 20.7262C43.0426 20.8225 42.7932 20.8718 42.5413 20.8715Z" fill="#335DBA"/>
</svg>
