<svg width="44" height="44" viewBox="0 0 44 44" fill="none" xmlns="http://www.w3.org/2000/svg">
<rect width="44" height="44" rx="4" fill="#FBF0E1"/>
<path d="M31 20V17.5C31 15.2909 29.2091 13.5 27 13.5H17C14.7909 13.5 13 15.2909 13 17.5V28C13 30.2091 14.7909 32 17 32H19M18 12V15M26 12V15M24 20.5858L22.7071 19.2929C22.3166 18.9024 21.6834 18.9024 21.2929 19.2929L20 20.5858M22 23.5858V19.5858M22 32L25.0608 31.1274C25.2249 31.0806 25.3743 30.9928 25.495 30.8721L30.5098 25.8573C31.1634 25.2037 31.1634 24.1439 30.5098 23.4902C29.8561 22.8366 28.7963 22.8366 28.1427 23.4902L23.1279 28.505C23.0072 28.6257 22.9194 28.7751 22.8726 28.9392L22 32Z" stroke="#FC9C0F" stroke-width="1.5" stroke-linecap="round"/>
</svg>
