<svg width="20" height="20" viewBox="0 0 20 20" fill="none" xmlns="http://www.w3.org/2000/svg">
  <path
    d="M4.69531 9.25089C5.37588 7.20918 7.28658 5.83203 9.43873 5.83203H10.5645C12.7166 5.83203 14.6273 7.20918 15.3079 9.25089L16.1412 11.7509C17.2204 14.9886 14.8106 18.332 11.3978 18.332H8.6054C5.19261 18.332 2.78276 14.9885 3.86198 11.7509L4.69531 9.25089Z"
    stroke="#767D8B" strokeWidth="1.5" strokeLinejoin="round" />
  <path d="M7.5 15C9.37866 16.0956 10.4815 16.1204 12.5 15" stroke="#767D8B" strokeWidth="1.5"
    strokeLinecap="round" />
  <path
    d="M11.7395 5.83464L8.26306 5.83463L7.09549 4.49543C5.95096 3.18266 7.28618 1.22045 8.95719 1.75951L9.73034 2.00892C9.90636 2.0657 10.0962 2.0657 10.2723 2.00892L11.0454 1.75951C12.7164 1.22045 14.0516 3.18266 12.9071 4.49543L11.7395 5.83464Z"
    stroke="#767D8B" strokeWidth="1.5" strokeLinejoin="round" />
</svg>