<svg width="20" height="20" viewBox="0 0 20 20" fill="none" xmlns="http://www.w3.org/2000/svg">
  <g clipPath="url(#clip0_556_12975)">
    <path d="M6.51768 18.3346H13.4849C15.4089 18.3346 16.9686 16.8463 16.9686 15.0103V10.9455C16.9686 10.3553 17.2142 9.78929 17.6516 9.37197C18.6648 8.40505 18.5331 6.80301 17.3742 5.99873L12.0503 2.3038C10.8287 1.45603 9.17387 1.45603 7.95233 2.3038L2.62839 5.99873C1.46953 6.80301 1.33781 8.40505 2.35104 9.37197C2.78836 9.78929 3.03405 10.3553 3.03405 10.9455V15.0103C3.03405 16.8463 4.59372 18.3346 6.51768 18.3346Z" stroke="#767D8B" strokeWidth="1.5" strokeLinecap="round" strokeLinejoin="round" />
    <path d="M10.3548 8.33464H9.64776C9.25726 8.33464 8.94069 8.63311 8.94069 9.0013C8.94069 9.42264 8.48988 9.69052 8.11982 9.48907L8.08223 9.46861C7.74404 9.28452 7.31161 9.39377 7.11635 9.71263L6.76282 10.29C6.56756 10.6088 6.68344 11.0166 7.02162 11.2007C7.39186 11.4022 7.39187 11.9337 7.02163 12.1353C6.68344 12.3194 6.56757 12.7271 6.76283 13.046L7.11636 13.6233C7.31161 13.9422 7.74405 14.0514 8.08224 13.8673L8.11982 13.8469C8.48988 13.6454 8.94069 13.9133 8.94069 14.3346C8.94069 14.7028 9.25726 15.0013 9.64776 15.0013H10.3548C10.7453 15.0013 11.0619 14.7028 11.0619 14.3346C11.0619 13.9133 11.5127 13.6454 11.8828 13.8469L11.9204 13.8673C12.2586 14.0514 12.691 13.9422 12.8862 13.6233L13.2398 13.046C13.435 12.7271 13.3192 12.3194 12.981 12.1353C12.6107 11.9337 12.6107 11.4022 12.981 11.2007C13.3192 11.0166 13.435 10.6088 13.2398 10.29L12.8863 9.71263C12.691 9.39377 12.2586 9.28452 11.9204 9.46861L11.8828 9.48907C11.5127 9.69052 11.0619 9.42264 11.0619 9.0013C11.0619 8.63311 10.7453 8.33464 10.3548 8.33464Z" stroke="#767D8B" strokeWidth="1.5" strokeLinecap="round" strokeLinejoin="round" />
    <path d="M10.625 11.668C10.625 12.0131 10.3452 12.293 10 12.293C9.65482 12.293 9.375 12.0131 9.375 11.668C9.375 11.3228 9.65482 11.043 10 11.043C10.3452 11.043 10.625 11.3228 10.625 11.668Z" fill="#767D8B" />
  </g>
  <defs>
    <clipPath id="clip0_556_12975">
      <rect width="20" height="20" fill="white" />
    </clipPath>
  </defs>
</svg>