<svg width="46" height="46" viewBox="0 0 46 46" fill="none" xmlns="http://www.w3.org/2000/svg">
  <rect width="46" height="46" rx="10" fill="#F5FBFF" />
  <path fillRule="evenodd" clipRule="evenodd" d="M18.4697 16.4697C18.1768 16.7626 18.1768 17.2374 18.4697 17.5303C18.7626 17.8232 19.2374 17.8232 19.5303 17.5303L22.25 14.8107L22.25 27C22.25 27.4142 22.5858 27.75 23 27.75C23.4142 27.75 23.75 27.4142 23.75 27V14.8106L26.4697 17.5303C26.7626 17.8232 27.2374 17.8232 27.5303 17.5303C27.8232 17.2374 27.8232 16.7626 27.5303 16.4697L23.5303 12.4697C23.3896 12.329 23.1989 12.25 23 12.25C22.801 12.25 22.6103 12.329 22.4696 12.4697L18.4697 16.4697ZM17.3398 20.4691C17.5989 20.1459 17.5469 19.6739 17.2237 19.4148C16.9005 19.1558 16.4285 19.2077 16.1694 19.5309C14.9687 21.0288 14.25 22.9315 14.25 25C14.25 29.8325 18.1675 33.75 23 33.75C27.8325 33.75 31.75 29.8325 31.75 25C31.75 22.9315 31.0313 21.0288 29.8306 19.5309C29.5715 19.2077 29.0995 19.1558 28.7763 19.4148C28.4531 19.6739 28.4011 20.1459 28.6602 20.4691C29.6553 21.7105 30.25 23.2848 30.25 25C30.25 29.0041 27.0041 32.25 23 32.25C18.9959 32.25 15.75 29.0041 15.75 25C15.75 23.2848 16.3447 21.7105 17.3398 20.4691Z" fill="#4C6CB2" />
</svg>