<svg width="44" height="44" viewBox="0 0 44 44" fill="none" xmlns="http://www.w3.org/2000/svg">
  <rect width="44" height="44" rx="4" fill="#FBF0E1" />
  <ellipse cx="22" cy="26.5" rx="6" ry="2.5" stroke="#FC9C0F" strokeWidth="1.5"
    strokeLinejoin="round" />
  <circle cx="22" cy="18" r="3" stroke="#FC9C0F" strokeWidth="1.5" strokeLinejoin="round" />
  <path fillRule="evenodd" clipRule="evenodd"
    d="M16.4455 23.2617C15.2069 23.3133 14.0691 23.5364 13.1859 23.8897C12.6812 24.0915 12.2225 24.3507 11.8776 24.6768C11.5312 25.0045 11.25 25.4514 11.25 26.0002C11.25 26.5491 11.5312 26.996 11.8776 27.3236C12.2225 27.6498 12.6812 27.9089 13.1859 28.1108C13.6857 28.3107 14.267 28.469 14.902 28.578C14.4083 28.0455 14.0985 27.4506 14.0199 26.8197C13.9234 26.7872 13.831 26.7533 13.743 26.7181C13.3429 26.558 13.0694 26.3862 12.9083 26.2338C12.7498 26.084 12.75 26.0048 12.75 26.0003L12.75 26.0002L12.75 26.0002C12.75 25.9956 12.7498 25.9165 12.9083 25.7667C13.0694 25.6142 13.3429 25.4424 13.743 25.2824C13.946 25.2012 14.172 25.1268 14.4179 25.0611C14.8316 24.3712 15.5345 23.7562 16.4455 23.2617Z"
    fill="#FC9C0F" />
  <path fillRule="evenodd" clipRule="evenodd"
    d="M29.9803 26.8197C29.9016 27.4506 29.5918 28.0455 29.0982 28.578C29.7331 28.469 30.3144 28.3107 30.8142 28.1108C31.3189 27.9089 31.7777 27.6498 32.1226 27.3236C32.469 26.996 32.7502 26.5491 32.7502 26.0002C32.7502 25.4514 32.469 25.0045 32.1226 24.6768C31.7777 24.3507 31.3189 24.0916 30.8142 23.8897C29.931 23.5364 28.7933 23.3133 27.5547 23.2617C28.4657 23.7562 29.1686 24.3712 29.5823 25.0611C29.8281 25.1268 30.0542 25.2012 30.2571 25.2824C30.6573 25.4424 30.9307 25.6142 31.0919 25.7667C31.2504 25.9165 31.2502 25.9956 31.2502 26.0002V26.0002V26.0003C31.2502 26.0048 31.2504 26.084 31.0919 26.2338C30.9307 26.3862 30.6573 26.558 30.2571 26.7181C30.1691 26.7533 30.0767 26.7872 29.9803 26.8197Z"
    fill="#FC9C0F" />
  <path fillRule="evenodd" clipRule="evenodd"
    d="M26.5137 20.1522C26.2938 20.6126 26.0056 21.0341 25.6621 21.4036C26.0579 21.6243 26.5139 21.75 26.9993 21.75C28.5181 21.75 29.7493 20.5188 29.7493 19C29.7493 17.4812 28.5181 16.25 26.9993 16.25C26.8951 16.25 26.7921 16.2558 26.6909 16.2671C26.8629 16.7327 26.9676 17.231 26.9932 17.75C26.9952 17.75 26.9973 17.75 26.9993 17.75C27.6897 17.75 28.2493 18.3096 28.2493 19C28.2493 19.6904 27.6897 20.25 26.9993 20.25C26.8271 20.25 26.663 20.2152 26.5137 20.1522Z"
    fill="#FC9C0F" />
  <path fillRule="evenodd" clipRule="evenodd"
    d="M17.3084 16.2671C17.2072 16.2558 17.1043 16.25 17 16.25C15.4812 16.25 14.25 17.4812 14.25 19C14.25 20.5188 15.4812 21.75 17 21.75C17.4854 21.75 17.9414 21.6243 18.3372 21.4036C17.9937 21.0341 17.7055 20.6126 17.4856 20.1522C17.3363 20.2152 17.1722 20.25 17 20.25C16.3096 20.25 15.75 19.6904 15.75 19C15.75 18.3096 16.3096 17.75 17 17.75C17.002 17.75 17.0041 17.75 17.0061 17.75C17.0317 17.231 17.1364 16.7327 17.3084 16.2671Z"
    fill="#FC9C0F" />
</svg>