<svg width="151" height="50" viewBox="0 0 151 50" fill="none" xmlns="http://www.w3.org/2000/svg">
<rect x="0.960449" y="0.5" width="149.393" height="49" rx="7.5" fill="#010101"/>
<rect x="0.960449" y="0.5" width="149.393" height="49" rx="7.5" stroke="#F0F0F9"/>
<path fill-rule="evenodd" clip-rule="evenodd" d="M34.3332 25.8374C34.3008 22.499 37.0525 20.8736 37.1796 20.7985C35.6218 18.5144 33.2066 18.2038 32.3566 18.1787C30.3302 17.9659 28.3635 19.401 27.3316 19.401C26.2773 19.401 24.6845 18.2013 22.9721 18.2364C20.7638 18.2715 18.6999 19.5563 17.5683 21.5473C15.2352 25.612 16.9751 31.5827 19.2134 34.8685C20.335 36.4764 21.6411 38.2746 23.3535 38.2095C25.0285 38.1393 25.6541 37.1375 27.6756 37.1375C29.6796 37.1375 30.2678 38.2095 32.0151 38.1694C33.8122 38.1393 34.9438 36.554 36.0231 34.9286C37.3193 33.0853 37.8377 31.2696 37.8576 31.177C37.8152 31.1619 34.3681 29.8395 34.3332 25.8374" fill="white"/>
<path fill-rule="evenodd" clip-rule="evenodd" d="M31.0284 16.0264C31.9283 14.8941 32.5489 13.3511 32.3744 11.788C31.0707 11.8481 29.4406 12.6948 28.5008 13.802C27.6707 14.7789 26.9253 16.3796 27.1198 17.8826C28.5855 17.9928 30.0886 17.1411 31.0284 16.0264" fill="white"/>
<path d="M112.004 17.2772C111.277 17.2772 110.71 17.1139 110.304 16.7871C109.897 16.4604 109.694 16.005 109.694 15.4208C109.694 15.1931 109.724 14.953 109.784 14.7005C109.85 14.4431 109.937 14.1881 110.048 13.9356L110.514 14.0767C110.419 14.2698 110.341 14.4728 110.281 14.6856C110.221 14.8936 110.191 15.0916 110.191 15.2797C110.191 15.7005 110.329 16.0272 110.605 16.2599C110.886 16.4926 111.277 16.6089 111.779 16.6089H112.23C112.777 16.6089 113.214 16.5099 113.54 16.3119C113.866 16.1188 114.056 15.8441 114.112 15.4876L112.509 15.2797V14.6262L113.48 14.7673C113.65 14.7921 113.836 14.8144 114.036 14.8342C114.242 14.849 114.41 14.8564 114.541 14.8564V15.1609L114.631 15.2574C114.631 15.5743 114.571 15.8564 114.45 16.104C114.335 16.3564 114.164 16.5693 113.939 16.7426C113.713 16.9158 113.437 17.047 113.111 17.1361C112.785 17.2302 112.416 17.2772 112.004 17.2772Z" fill="white"/>
<path d="M114.387 15.005L114.538 14.8564H114.801C115.227 14.8564 115.441 14.646 115.441 14.2252V10H115.998V14.2252C115.998 14.646 116.211 14.8564 116.637 14.8564H116.901V15.3465L116.75 15.495C116.038 15.495 115.621 15.2525 115.501 14.7673H115.463C115.408 15.0396 115.3 15.2302 115.14 15.3391C114.979 15.4431 114.728 15.495 114.387 15.495V15.005Z" fill="white"/>
<path d="M116.754 15.005L116.904 14.8564H117.852V14.8193C117.667 14.7005 117.511 14.5297 117.386 14.3069C117.265 14.0842 117.205 13.8416 117.205 13.5792C117.205 13.3564 117.243 13.1535 117.318 12.9703C117.393 12.7871 117.494 12.6312 117.619 12.5025C117.749 12.3688 117.903 12.2673 118.078 12.198C118.254 12.1238 118.439 12.0866 118.635 12.0866C118.921 12.0866 119.169 12.146 119.38 12.2649C119.591 12.3787 119.766 12.5421 119.907 12.755L119.531 13.1856C119.4 13.0272 119.26 12.9109 119.109 12.8366C118.964 12.7624 118.796 12.7252 118.605 12.7252C118.319 12.7252 118.101 12.8045 117.95 12.9629C117.805 13.1163 117.732 13.3218 117.732 13.5792C117.732 13.7178 117.762 13.8465 117.822 13.9653C117.882 14.0842 117.965 14.1881 118.071 14.2772C118.176 14.3614 118.301 14.4282 118.447 14.4777C118.592 14.5272 118.75 14.552 118.921 14.552C119.147 14.552 119.38 14.5223 119.621 14.4629L120.223 14.3144L120.366 14.8936L119.388 15.1609C119.147 15.2302 118.924 15.2871 118.718 15.3317C118.512 15.3713 118.306 15.4035 118.101 15.4282C117.9 15.453 117.689 15.4703 117.469 15.4802C117.253 15.4901 117.014 15.495 116.754 15.495V15.005Z" fill="white"/>
<path d="M124.707 17.7525C124.376 17.7525 124.075 17.7054 123.804 17.6114C123.538 17.5173 123.312 17.3787 123.127 17.1955C122.941 17.0173 122.798 16.797 122.698 16.5347C122.597 16.2772 122.547 15.9827 122.547 15.651C122.547 15.4381 122.577 15.2302 122.638 15.0272C122.703 14.8193 122.811 14.6213 122.961 14.4332C123.117 14.2401 123.322 14.0569 123.578 13.8837C123.834 13.7104 124.153 13.5495 124.534 13.401L126.077 12.8069V12.7772L123.368 12.6807V13.2599H122.841V12.6881C122.841 12.4653 122.914 12.3045 123.059 12.2054C123.205 12.1015 123.408 12.0569 123.669 12.0718L126.536 12.2426V13.2228L124.602 13.9431C124.085 14.1312 123.706 14.3465 123.465 14.5891C123.225 14.8317 123.104 15.1312 123.104 15.4876V15.6658C123.104 16.1163 123.247 16.4653 123.533 16.7129C123.824 16.9604 124.215 17.0842 124.707 17.0842C125.068 17.0842 125.389 17.0248 125.67 16.9059C125.951 16.7921 126.22 16.604 126.476 16.3416L126.882 16.8391C126.727 16.9975 126.569 17.1337 126.408 17.2475C126.247 17.3663 126.079 17.4629 125.904 17.5371C125.728 17.6114 125.54 17.6658 125.339 17.7005C125.144 17.7351 124.933 17.7525 124.707 17.7525Z" fill="white"/>
<path d="M128.604 15.495C128.363 15.495 128.158 15.4752 127.987 15.4356C127.821 15.396 127.686 15.3317 127.581 15.2426C127.48 15.1485 127.408 15.0272 127.362 14.8787C127.317 14.7302 127.295 14.5495 127.295 14.3366V10H127.852V14.3366C127.852 14.5248 127.904 14.6584 128.01 14.7376C128.115 14.8168 128.278 14.8564 128.499 14.8564H128.762V15.3465L128.612 15.495H128.604Z" fill="white"/>
<path d="M128.608 15.005L128.759 14.8564H129.022C129.449 14.8564 129.662 14.646 129.662 14.2252V13.052H130.189V14.2252C130.189 14.646 130.402 14.8564 130.828 14.8564H131.092V15.3465L130.941 15.495C130.249 15.495 129.842 15.2525 129.722 14.7673H129.684C129.629 15.0396 129.521 15.2302 129.361 15.3391C129.2 15.4431 128.949 15.495 128.608 15.495V15.005ZM130.347 12.1609C130.246 12.1609 130.166 12.1337 130.106 12.0792C130.046 12.0198 130.015 11.9257 130.015 11.797C130.015 11.6683 130.046 11.5767 130.106 11.5223C130.166 11.4629 130.246 11.4332 130.347 11.4332H130.429C130.53 11.4332 130.61 11.4629 130.67 11.5223C130.73 11.5767 130.761 11.6683 130.761 11.797C130.761 11.9257 130.73 12.0198 130.67 12.0792C130.61 12.1337 130.53 12.1609 130.429 12.1609H130.347ZM129.376 12.1609C129.275 12.1609 129.195 12.1337 129.135 12.0792C129.075 12.0198 129.045 11.9257 129.045 11.797C129.045 11.6683 129.075 11.5767 129.135 11.5223C129.195 11.4629 129.275 11.4332 129.376 11.4332H129.459C129.559 11.4332 129.639 11.4629 129.699 11.5223C129.76 11.5767 129.79 11.6683 129.79 11.797C129.79 11.9257 129.76 12.0198 129.699 12.0792C129.639 12.1337 129.559 12.1609 129.459 12.1609H129.376Z" fill="white"/>
<path d="M131.924 15.0644C131.808 15.2178 131.673 15.3292 131.517 15.3985C131.367 15.4629 131.174 15.495 130.938 15.495V15.005L131.088 14.8564C131.184 14.8564 131.264 14.8441 131.329 14.8193C131.399 14.7946 131.46 14.7574 131.51 14.7079C131.565 14.6535 131.613 14.5842 131.653 14.5C131.698 14.4109 131.743 14.3069 131.788 14.1881L131.999 13.6386C132.114 13.3416 132.267 13.1139 132.458 12.9554C132.649 12.7921 132.902 12.7104 133.218 12.7104C133.589 12.7104 133.875 12.8762 134.076 13.2079C134.282 13.5396 134.385 14 134.385 14.5891V14.9381L133.941 15.5842L131.924 15.0644ZM132.225 14.4777L133.858 14.9084V14.5891C133.858 14.203 133.793 13.901 133.662 13.6832C133.537 13.4604 133.359 13.349 133.128 13.349C132.937 13.349 132.789 13.4059 132.684 13.5198C132.584 13.6337 132.498 13.7772 132.428 13.9505L132.225 14.4777Z" fill="white"/>
<path d="M107.625 26.4965V28.6609H106.229V30.0802H107.625V34.9029C107.625 36.5496 108.392 37.2083 110.321 37.2083C110.66 37.2083 110.983 37.1691 111.265 37.1221V35.7184C111.023 35.7419 110.87 35.7576 110.603 35.7576C109.74 35.7576 109.36 35.3655 109.36 34.4716V30.0802H111.265V28.6609H109.36V26.4965H107.625Z" fill="white"/>
<path d="M116.179 37.326C118.746 37.326 120.32 35.6557 120.32 32.8875C120.32 30.1351 118.738 28.457 116.179 28.457C113.613 28.457 112.031 30.1351 112.031 32.8875C112.031 35.6557 113.605 37.326 116.179 37.326ZM116.179 35.8282C114.67 35.8282 113.823 34.7539 113.823 32.8875C113.823 31.0369 114.67 29.9547 116.179 29.9547C117.681 29.9547 118.536 31.0369 118.536 32.8875C118.536 34.746 117.681 35.8282 116.179 35.8282Z" fill="white"/>
<path d="M121.666 37.1613H123.402V32.1191C123.402 30.9193 124.33 30.1116 125.646 30.1116C125.952 30.1116 126.469 30.1665 126.614 30.2135V28.5511C126.428 28.504 126.098 28.4805 125.839 28.4805C124.693 28.4805 123.717 29.0921 123.466 29.9312H123.337V28.6216H121.666V37.1613Z" fill="white"/>
<path d="M130.923 29.892C132.206 29.892 133.046 30.7624 133.086 32.1034H128.647C128.744 30.7703 129.64 29.892 130.923 29.892ZM133.078 34.8558C132.755 35.5224 132.037 35.8909 130.987 35.8909C129.599 35.8909 128.703 34.9421 128.647 33.4443V33.3502H134.854V32.7621C134.854 30.0802 133.376 28.457 130.931 28.457C128.453 28.457 126.879 30.19 126.879 32.9189C126.879 35.6478 128.421 37.326 130.939 37.326C132.949 37.326 134.353 36.385 134.749 34.8558H133.078Z" fill="white"/>
<path d="M96.2452 34.0077C96.3791 36.1047 98.1777 37.4458 100.855 37.4458C103.716 37.4458 105.506 36.0397 105.506 33.7964C105.506 32.0327 104.485 31.0574 102.009 30.4966L100.679 30.1796C99.1063 29.822 98.4705 29.3424 98.4705 28.5053C98.4705 27.4487 99.4576 26.7578 100.938 26.7578C102.344 26.7578 103.314 27.4324 103.49 28.5134H105.314C105.205 26.5384 103.415 25.1485 100.963 25.1485C98.3283 25.1485 96.5715 26.5384 96.5715 28.6272C96.5715 30.3503 97.567 31.3744 99.7504 31.8701L101.306 32.2359C102.904 32.6016 103.607 33.1381 103.607 34.0321C103.607 35.0725 102.503 35.8283 100.997 35.8283C99.3823 35.8283 98.2613 35.1212 98.1024 34.0077H96.2452Z" fill="white"/>
<path d="M78.2692 28.4805C77.0747 28.4805 76.0416 29.0608 75.5089 30.0332H75.3797V28.6216H73.709V40H75.4443V35.8674H75.5815C76.0416 36.7692 77.0343 37.3024 78.2854 37.3024C80.5049 37.3024 81.9174 35.6008 81.9174 32.8875C81.9174 30.1743 80.5049 28.4805 78.2692 28.4805ZM77.7769 35.789C76.324 35.789 75.412 34.6755 75.412 32.8954C75.412 31.1075 76.324 29.9939 77.7849 29.9939C79.2539 29.9939 80.1337 31.084 80.1337 32.8875C80.1337 34.699 79.2539 35.789 77.7769 35.789Z" fill="white"/>
<path d="M87.9895 28.4805C86.795 28.4805 85.7619 29.0608 85.2292 30.0332H85.1V28.6216H83.4293V40H85.1646V35.8674H85.3018C85.7619 36.7692 86.7546 37.3024 88.0057 37.3024C90.2253 37.3024 91.6377 35.6008 91.6377 32.8875C91.6377 30.1743 90.2253 28.4805 87.9895 28.4805ZM87.4972 35.789C86.0444 35.789 85.1323 34.6755 85.1323 32.8954C85.1323 31.1075 86.0444 29.9939 87.5053 29.9939C88.9742 29.9939 89.854 31.084 89.854 32.8875C89.854 34.699 88.9742 35.789 87.4972 35.789Z" fill="white"/>
<path d="M70.5955 37.1613H72.5865L68.2281 25.433H66.212L61.8535 37.1613H63.7776L64.8902 34.0484H69.4913L70.5955 37.1613ZM67.1238 27.5624H67.266L69.0144 32.5204H65.3671L67.1238 27.5624Z" fill="white"/>
</svg>
