<svg
  width="20"
  height="20"
  viewBox="0 0 20 20"
  fill="none"
  xmlns="http://www.w3.org/2000/svg"
>
  <ellipse
    cx="10"
    cy="13.7513"
    rx="5"
    ry="2.08333"
    stroke="#28303F"
    strokeWidth="1.5"
    strokeLinejoin="round"
  />
  <ellipse
    cx="10"
    cy="6.66797"
    rx="2.5"
    ry="2.5"
    stroke="#28303F"
    strokeWidth="1.5"
    strokeLinejoin="round"
  />
  <path
    fillRule="evenodd"
    clipRule="evenodd"
    d="M5.63014 10.918C4.48615 10.9386 3.42425 11.1321 2.60981 11.4579C2.18051 11.6296 1.78276 11.8529 1.48008 12.1391C1.1758 12.4269 0.917969 12.83 0.917969 13.3328C0.917969 13.8356 1.1758 14.2387 1.48008 14.5265C1.78276 14.8127 2.18051 15.0359 2.60981 15.2077C3.07943 15.3955 3.63131 15.5394 4.23377 15.6315C3.69824 15.1133 3.37707 14.5164 3.33855 13.8792C3.27923 13.8584 3.22198 13.837 3.1669 13.8149C2.84219 13.6851 2.62974 13.5492 2.51074 13.4366C2.4578 13.3866 2.43374 13.3519 2.42328 13.3328C2.43374 13.3137 2.4578 13.279 2.51074 13.229C2.62974 13.1164 2.84219 12.9805 3.1669 12.8506C3.29844 12.798 3.44235 12.7488 3.59727 12.7038C3.95887 12.0019 4.6753 11.3848 5.63014 10.918ZM2.41585 13.3503C2.41572 13.3503 2.41596 13.3489 2.41696 13.3462C2.41648 13.3489 2.41598 13.3503 2.41585 13.3503ZM2.41696 13.3194C2.41596 13.3167 2.41572 13.3153 2.41585 13.3153C2.41598 13.3153 2.41648 13.3167 2.41696 13.3194Z"
    fill="#28303F"
  />
  <path
    fillRule="evenodd"
    clipRule="evenodd"
    d="M16.6627 13.8792C16.6242 14.5164 16.303 15.1133 15.7675 15.6315C16.3699 15.5394 16.9218 15.3955 17.3914 15.2077C17.8207 15.0359 18.2185 14.8127 18.5212 14.5265C18.8254 14.2387 19.0833 13.8356 19.0833 13.3328C19.0833 12.83 18.8254 12.4269 18.5212 12.1391C18.2185 11.8529 17.8207 11.6296 17.3914 11.4579C16.577 11.1321 15.5151 10.9386 14.3711 10.918C15.3259 11.3848 16.0424 12.0019 16.404 12.7038C16.5589 12.7488 16.7028 12.798 16.8343 12.8506C17.159 12.9805 17.3715 13.1164 17.4905 13.229C17.5434 13.279 17.5675 13.3137 17.578 13.3328C17.5675 13.3519 17.5434 13.3866 17.4905 13.4366C17.3715 13.5492 17.159 13.6851 16.8343 13.8149C16.7793 13.837 16.722 13.8584 16.6627 13.8792ZM17.5854 13.3503C17.5853 13.3503 17.5848 13.3489 17.5843 13.3462C17.5853 13.3489 17.5855 13.3503 17.5854 13.3503ZM17.5843 13.3194C17.5848 13.3167 17.5853 13.3153 17.5854 13.3153C17.5855 13.3153 17.5853 13.3167 17.5843 13.3194Z"
    fill="#28303F"
  />
  <path
    fillRule="evenodd"
    clipRule="evenodd"
    d="M13.816 8.34515C13.6096 8.81317 13.3196 9.23602 12.9648 9.59478C13.3192 9.79872 13.7302 9.91536 14.1685 9.91536C15.5032 9.91536 16.5851 8.83339 16.5851 7.4987C16.5851 6.16401 15.5032 5.08203 14.1685 5.08203C14.0656 5.08203 13.9643 5.08846 13.8648 5.10093C14.0508 5.55966 14.1574 6.05904 14.1676 6.58203C14.1679 6.58203 14.1682 6.58203 14.1685 6.58203C14.6747 6.58203 15.0851 6.99244 15.0851 7.4987C15.0851 8.00496 14.6747 8.41536 14.1685 8.41536C14.0436 8.41536 13.9245 8.39039 13.816 8.34515Z"
    fill="#28303F"
  />
  <path
    fillRule="evenodd"
    clipRule="evenodd"
    d="M6.13829 5.10093C6.03883 5.08846 5.93748 5.08203 5.83464 5.08203C4.49995 5.08203 3.41797 6.16401 3.41797 7.4987C3.41797 8.83339 4.49995 9.91536 5.83464 9.91536C6.27287 9.91536 6.68386 9.79872 7.03825 9.59478C6.68354 9.23602 6.39351 8.81317 6.1871 8.34515C6.07859 8.39039 5.95953 8.41536 5.83464 8.41536C5.32837 8.41536 4.91797 8.00496 4.91797 7.4987C4.91797 6.99244 5.32837 6.58203 5.83464 6.58203C5.83491 6.58203 5.83518 6.58203 5.83545 6.58203C5.84571 6.05904 5.95233 5.55966 6.13829 5.10093Z"
    fill="#28303F"
  />
</svg>