<svg width="41" height="41" viewBox="0 0 41 41" fill="none" xmlns="http://www.w3.org/2000/svg">
<path d="M25.625 27.3333L25.4779 28.0688C25.8096 28.1351 26.1446 27.9713 26.2958 27.6687L25.625 27.3333ZM17.9375 23.0625L18.4678 22.5322L17.9375 23.0625ZM13.6667 15.375L13.3313 14.7042C13.0287 14.8554 12.8649 15.1904 12.9312 15.5221L13.6667 15.375ZM14.2714 15.0726L14.6069 15.7434L14.2714 15.0726ZM15.9158 10.7477L16.6121 10.4692L15.9158 10.7477ZM14.5258 7.27275L13.8294 7.55129L14.5258 7.27275ZM33.7273 26.4742L34.0058 25.7779L33.7273 26.4742ZM30.2523 25.0842L29.9737 25.7806L30.2523 25.0842ZM25.9274 26.7286L26.5982 27.064H26.5982L25.9274 26.7286ZM35.125 29.6465V32.4583H36.625V29.6465H35.125ZM8.54167 5.875H11.3535V4.375H8.54167V5.875ZM25.625 27.3333C25.7721 26.5979 25.7723 26.5979 25.7725 26.598C25.7725 26.598 25.7727 26.598 25.7728 26.598C25.7729 26.5981 25.773 26.5981 25.7731 26.5981C25.7732 26.5981 25.773 26.5981 25.7725 26.598C25.7717 26.5978 25.7698 26.5974 25.7669 26.5968C25.7612 26.5956 25.7514 26.5935 25.7379 26.5905C25.7108 26.5846 25.6684 26.5749 25.6121 26.5612C25.4993 26.5338 25.3306 26.4901 25.1159 26.427C24.6862 26.3006 24.074 26.0967 23.3579 25.7898C21.9223 25.1745 20.0897 24.1541 18.4678 22.5322L17.4072 23.5928C19.2019 25.3876 21.2131 26.5026 22.7671 27.1685C23.5458 27.5023 24.2149 27.7255 24.6927 27.866C24.9317 27.9363 25.1234 27.9861 25.2576 28.0187C25.3246 28.035 25.3774 28.0471 25.4145 28.0553C25.4331 28.0594 25.4478 28.0625 25.4584 28.0647C25.4637 28.0659 25.468 28.0667 25.4712 28.0674C25.4729 28.0678 25.4742 28.068 25.4754 28.0683C25.4759 28.0684 25.4764 28.0685 25.4768 28.0686C25.477 28.0686 25.4773 28.0686 25.4774 28.0687C25.4777 28.0687 25.4779 28.0688 25.625 27.3333ZM18.4678 22.5322C16.8459 20.9103 15.8255 19.0777 15.2102 17.6421C14.9033 16.926 14.6994 16.3138 14.573 15.8841C14.5099 15.6694 14.4662 15.5007 14.4388 15.3879C14.4251 15.3316 14.4154 15.2892 14.4095 15.2621C14.4065 15.2486 14.4044 15.2388 14.4032 15.2331C14.4026 15.2302 14.4022 15.2283 14.402 15.2275C14.4019 15.227 14.4019 15.2268 14.4019 15.2269C14.4019 15.227 14.4019 15.2271 14.402 15.2272C14.402 15.2273 14.402 15.2275 14.402 15.2275C14.4021 15.2277 14.4021 15.2279 13.6667 15.375C12.9312 15.5221 12.9313 15.5223 12.9313 15.5226C12.9314 15.5227 12.9314 15.523 12.9314 15.5232C12.9315 15.5236 12.9316 15.5241 12.9317 15.5246C12.932 15.5258 12.9323 15.5271 12.9326 15.5288C12.9333 15.532 12.9341 15.5363 12.9353 15.5416C12.9375 15.5522 12.9406 15.5669 12.9447 15.5855C12.9529 15.6226 12.965 15.6754 12.9813 15.7424C13.0139 15.8766 13.0637 16.0683 13.134 16.3073C13.2745 16.7851 13.4978 17.4542 13.8315 18.2329C14.4974 19.7869 15.6124 21.7981 17.4072 23.5928L18.4678 22.5322ZM14.0021 16.0458L14.6069 15.7434L13.936 14.4018L13.3313 14.7042L14.0021 16.0458ZM16.6121 10.4692L15.2221 6.99421L13.8294 7.55129L15.2194 11.0263L16.6121 10.4692ZM34.0058 25.7779L30.5308 24.3879L29.9737 25.7806L33.4487 27.1706L34.0058 25.7779ZM25.2566 26.3931L24.9542 26.9979L26.2958 27.6687L26.5982 27.064L25.2566 26.3931ZM30.5308 24.3879C28.5188 23.5831 26.2257 24.4549 25.2566 26.3931L26.5982 27.064C27.2185 25.8235 28.686 25.2655 29.9737 25.7806L30.5308 24.3879ZM14.6069 15.7434C16.5451 14.7743 17.4169 12.4812 16.6121 10.4692L15.2194 11.0263C15.7345 12.314 15.1765 13.7815 13.936 14.4018L14.6069 15.7434ZM11.3535 5.875C12.4439 5.875 13.4244 6.53887 13.8294 7.55129L15.2221 6.99421C14.5894 5.4123 13.0572 4.375 11.3535 4.375V5.875ZM36.625 29.6465C36.625 27.9428 35.5877 26.4106 34.0058 25.7779L33.4487 27.1706C34.4611 27.5756 35.125 28.5561 35.125 29.6465H36.625ZM32.4583 35.125C17.7768 35.125 5.875 23.2232 5.875 8.54167H4.375C4.375 24.0517 16.9483 36.625 32.4583 36.625V35.125ZM32.4583 36.625C34.7595 36.625 36.625 34.7595 36.625 32.4583H35.125C35.125 33.9311 33.9311 35.125 32.4583 35.125V36.625ZM5.875 8.54167C5.875 7.06891 7.06891 5.875 8.54167 5.875V4.375C6.24048 4.375 4.375 6.24048 4.375 8.54167H5.875Z" fill="white"/>
</svg>
