<svg width="41" height="41" viewBox="0 0 41 41" fill="none" xmlns="http://www.w3.org/2000/svg">
<path d="M6.81108 29.4352L7.50339 29.7237L6.81108 29.4352ZM5.38747 32.8519L6.07977 33.1404L5.38747 32.8519ZM35.6118 32.8519L34.9195 33.1404L35.6118 32.8519ZM34.1882 29.4352L34.8805 29.1468L34.1882 29.4352ZM27.333 26.5827C26.9188 26.5827 26.583 26.9185 26.583 27.3327C26.583 27.7469 26.9188 28.0827 27.333 28.0827V26.5827ZM13.6663 28.0827C14.0805 28.0827 14.4163 27.7469 14.4163 27.3327C14.4163 26.9185 14.0805 26.5827 13.6663 26.5827V28.0827ZM31.708 15.5642C31.708 18.6751 29.9544 22.3067 27.5809 25.1967C26.4033 26.6306 25.1007 27.847 23.8401 28.6987C22.5634 29.5613 21.4049 29.9993 20.4996 29.9993V31.4993C21.8366 31.4993 23.2939 30.878 24.6798 29.9416C26.0819 28.9944 27.4886 27.6725 28.74 26.1487C31.2246 23.1235 33.208 19.1625 33.208 15.5642H31.708ZM20.4996 29.9993C19.5944 29.9993 18.4359 29.5613 17.1592 28.6987C15.8986 27.847 14.596 26.6306 13.4184 25.1967C11.0449 22.3067 9.29131 18.6751 9.29131 15.5642H7.79131C7.79131 19.1625 9.7747 23.1235 12.2592 26.1487C13.5107 27.6725 14.9174 28.9944 16.3194 29.9416C17.7053 30.878 19.1627 31.4993 20.4996 31.4993V29.9993ZM9.29131 15.5642C9.29131 9.25796 14.3205 4.16602 20.4996 4.16602V2.66602C13.4699 2.66602 7.79131 8.45189 7.79131 15.5642H9.29131ZM20.4996 4.16602C26.6787 4.16602 31.708 9.25796 31.708 15.5642H33.208C33.208 8.45189 27.5294 2.66602 20.4996 2.66602V4.16602ZM24.0205 15.3743C24.0205 17.3189 22.4441 18.8952 20.4996 18.8952V20.3952C23.2726 20.3952 25.5205 18.1473 25.5205 15.3743H24.0205ZM20.4996 18.8952C18.5551 18.8952 16.9788 17.3189 16.9788 15.3743H15.4788C15.4788 18.1473 17.7267 20.3952 20.4996 20.3952V18.8952ZM16.9788 15.3743C16.9788 13.4298 18.5551 11.8535 20.4996 11.8535V10.3535C17.7267 10.3535 15.4788 12.6014 15.4788 15.3743H16.9788ZM20.4996 11.8535C22.4441 11.8535 24.0205 13.4298 24.0205 15.3743H25.5205C25.5205 12.6014 23.2726 10.3535 20.4996 10.3535V11.8535ZM6.11877 29.1468L4.69516 32.5635L6.07977 33.1404L7.50339 29.7237L6.11877 29.1468ZM8.54131 38.3327H32.458V36.8327H8.54131V38.3327ZM36.3041 32.5635L34.8805 29.1468L33.4959 29.7237L34.9195 33.1404L36.3041 32.5635ZM31.0344 26.5827H27.333V28.0827H31.0344V26.5827ZM9.96492 28.0827H13.6663V26.5827H9.96492V28.0827ZM34.8805 29.1468C34.2336 27.5941 32.7165 26.5827 31.0344 26.5827V28.0827C32.1109 28.0827 33.0819 28.73 33.4959 29.7237L34.8805 29.1468ZM32.458 38.3327C35.4312 38.3327 37.4477 35.308 36.3041 32.5635L34.9195 33.1404C35.6514 34.8969 34.3609 36.8327 32.458 36.8327V38.3327ZM4.69516 32.5635C3.5516 35.308 5.56807 38.3327 8.54131 38.3327V36.8327C6.63844 36.8327 5.3479 34.8969 6.07977 33.1404L4.69516 32.5635ZM7.50339 29.7237C7.91744 28.73 8.88839 28.0827 9.96492 28.0827V26.5827C8.28284 26.5827 6.76573 27.5941 6.11877 29.1468L7.50339 29.7237Z" fill="white"/>
</svg>
