<svg width="114" height="115" viewBox="0 0 114 115" fill="none" xmlns="http://www.w3.org/2000/svg">
<g filter="url(#filter0_d_1218_6882)">
<path d="M49.9232 45.0678L45.7973 25.2765C45.4645 23.6803 47.0792 22.378 48.5688 23.0413L67.2298 31.3512C69.0442 32.1592 68.6989 34.8318 66.7387 35.1521L57.9594 36.5865C57.2389 36.7042 56.6398 37.2051 56.3964 37.8933L53.7665 45.3267C53.0918 47.2339 50.336 47.0483 49.9232 45.0678Z" fill="#FC9C0F"/>
<path d="M49.9232 45.0678L45.7973 25.2765C45.4645 23.6803 47.0792 22.378 48.5688 23.0413L67.2298 31.3512C69.0442 32.1592 68.6989 34.8318 66.7387 35.1521L57.9594 36.5865C57.2389 36.7042 56.6398 37.2051 56.3964 37.8933L53.7665 45.3267C53.0918 47.2339 50.336 47.0483 49.9232 45.0678Z" stroke="white" stroke-width="2"/>
</g>
<defs>
<filter id="filter0_d_1218_6882" x="0.751953" y="0.862305" width="112.665" height="113.798" filterUnits="userSpaceOnUse" color-interpolation-filters="sRGB">
<feFlood flood-opacity="0" result="BackgroundImageFix"/>
<feColorMatrix in="SourceAlpha" type="matrix" values="0 0 0 0 0 0 0 0 0 0 0 0 0 0 0 0 0 0 127 0" result="hardAlpha"/>
<feOffset dy="23"/>
<feGaussianBlur stdDeviation="22"/>
<feColorMatrix type="matrix" values="0 0 0 0 0.690196 0 0 0 0 0.717647 0 0 0 0 0.764706 0 0 0 0.14 0"/>
<feBlend mode="normal" in2="BackgroundImageFix" result="effect1_dropShadow_1218_6882"/>
<feBlend mode="normal" in="SourceGraphic" in2="effect1_dropShadow_1218_6882" result="shape"/>
</filter>
</defs>
</svg>
